<?xml version="1.0" standalone="no"?>
<!DOCTYPE svg PUBLIC "-//W3C//DTD SVG 20010904//EN"
 "http://www.w3.org/TR/2001/REC-SVG-20010904/DTD/svg10.dtd">
<svg version="1.0" xmlns="http://www.w3.org/2000/svg"
 width="616.000000pt" height="405.000000pt" viewBox="0 0 616.000000 405.000000"
 preserveAspectRatio="xMidYMid meet">

<g transform="translate(0.000000,405.000000) scale(0.100000,-0.100000)"
fill="#000000" stroke="none">
<path d="M4597 3744 c-64 -20 -151 -103 -166 -159 -6 -22 -11 -82 -11 -133 0
-143 41 -246 187 -467 108 -165 141 -224 183 -335 50 -133 43 -134 238 30 49
41 126 100 171 130 239 161 337 254 398 377 35 70 38 84 38 158 0 66 -5 87
-25 123 -90 159 -329 148 -490 -24 -32 -35 -66 -76 -76 -93 -29 -50 -33 -45
-54 64 -15 75 -67 187 -113 240 -72 84 -185 120 -280 89z"/>
<path d="M1606 3624 c-27 -27 -12 -64 26 -64 33 0 43 53 14 72 -16 11 -23 10
-40 -8z"/>
<path d="M2633 3534 c-62 -31 -67 -101 -12 -157 26 -26 35 -29 72 -24 59 8 91
46 84 100 -10 74 -80 114 -144 81z"/>
<path d="M3640 3451 c0 -30 25 -45 44 -26 20 21 10 45 -20 45 -17 0 -24 -6
-24 -19z"/>
<path d="M4060 3420 c-11 -11 -20 -31 -20 -44 0 -26 33 -56 61 -56 29 0 62 34
62 65 0 52 -64 74 -103 35z"/>
<path d="M1464 3396 c-9 -24 12 -44 28 -28 10 10 8 16 -5 29 -15 15 -17 15
-23 -1z"/>
<path d="M1682 3348 c-21 -21 -15 -66 12 -83 13 -8 30 -13 38 -10 22 9 40 48
36 76 -2 19 -10 25 -38 27 -19 2 -41 -3 -48 -10z"/>
<path d="M3700 3276 c-7 -9 -10 -23 -6 -31 11 -29 60 -10 54 21 -4 24 -31 29
-48 10z"/>
<path d="M531 3082 c-16 -12 -24 -34 -30 -77 -7 -51 -6 -869 2 -930 1 -15 -5
-21 -23 -23 -28 -4 -59 -38 -60 -64 0 -9 12 -26 26 -37 23 -18 24 -21 8 -21
-15 0 -16 -2 -5 -9 11 -7 11 -14 -3 -42 -16 -31 -15 -33 6 -57 l23 -24 -32
-29 c-18 -16 -33 -34 -33 -39 0 -6 -4 -8 -10 -5 -5 3 -10 1 -10 -5 0 -7 6 -10
14 -7 8 3 21 -2 30 -12 19 -20 21 -61 4 -61 -6 0 -4 -7 5 -18 10 -10 15 -21
12 -24 -3 -2 -6 -20 -8 -39 -2 -28 -7 -34 -24 -32 -22 2 -39 -32 -22 -43 17
-10 9 -22 -20 -29 -27 -6 -48 -31 -36 -43 3 -3 5 0 5 7 0 7 5 9 10 6 6 -4 8
-11 5 -16 -4 -5 -2 -9 4 -9 5 0 11 -17 13 -37 2 -21 8 -37 14 -36 6 1 21 -8
32 -20 25 -27 20 -77 -7 -70 -11 3 -17 -2 -18 -16 -1 -12 2 -21 7 -21 17 0 20
-34 5 -57 -25 -38 -16 -67 23 -71 24 -2 32 -8 32 -22 0 -10 11 -31 24 -47 20
-23 26 -25 39 -15 8 7 20 26 27 42 16 38 43 40 38 3 -2 -16 2 -28 11 -31 10
-3 13 2 9 21 -4 19 0 27 13 30 34 9 43 -18 29 -78 -17 -71 -3 -123 43 -157 47
-36 90 -42 141 -18 71 34 110 105 96 178 -10 55 -33 89 -73 105 -17 8 -38 21
-46 31 -12 14 -11 16 10 14 26 -3 39 26 19 46 -8 8 -15 6 -25 -7 -13 -18 -14
-18 -26 5 -6 13 -17 26 -23 30 -7 5 -5 8 6 8 22 0 32 18 19 34 -13 15 -5 26
21 26 27 0 22 25 -9 39 l-27 12 27 17 c21 14 23 20 12 27 -8 6 -15 17 -17 25
-3 18 -56 60 -74 60 -7 0 -18 -8 -23 -17 -6 -10 -11 -14 -11 -9 0 17 46 62 59
58 11 -4 13 3 8 26 -4 19 -2 34 5 38 8 5 9 2 5 -9 -5 -12 -1 -17 14 -17 27 0
37 30 14 46 -10 7 -22 11 -26 8 -5 -3 -9 2 -9 11 0 12 -6 15 -20 10 -15 -5
-18 -3 -14 9 3 9 12 16 19 16 12 0 45 31 45 42 0 3 -13 11 -30 18 -37 15 -39
36 -5 44 14 4 25 11 25 17 0 6 -4 8 -9 5 -5 -3 -16 6 -25 20 -16 24 -16 26 8
55 29 35 33 49 11 49 -19 0 -33 27 -35 70 -5 83 1 210 9 210 5 0 14 -24 21
-52 7 -29 35 -132 62 -228 28 -96 57 -197 64 -224 16 -58 25 -66 73 -61 81 8
85 12 130 155 23 73 56 185 72 249 34 132 50 181 60 181 4 0 8 -213 7 -473 0
-305 4 -488 11 -513 17 -62 84 -124 118 -108 10 4 21 8 24 8 4 1 19 13 34 28
23 24 29 40 36 105 8 82 3 1572 -6 1707 -3 43 -12 91 -20 106 -35 68 -132 94
-179 47 -12 -12 -35 -62 -50 -111 -28 -90 -131 -486 -147 -562 -4 -22 -14 -58
-23 -80 -8 -21 -22 -67 -32 -101 -9 -35 -20 -63 -24 -63 -7 0 -12 16 -110 363
-68 244 -140 469 -164 516 -30 57 -128 82 -175 43z m19 -697 c0 -8 -4 -15 -10
-15 -5 0 -7 7 -4 15 4 8 8 15 10 15 2 0 4 -7 4 -15z m65 -145 c0 -8 -8 -16
-17 -18 -13 -2 -18 3 -18 18 0 15 5 20 18 18 9 -2 17 -10 17 -18z m-15 -105
c0 -13 -20 -35 -32 -35 -4 0 -8 10 -8 23 0 16 6 23 20 23 11 0 20 -5 20 -11z
m80 -47 c0 -11 -7 -18 -20 -18 -13 0 -20 7 -20 19 0 14 6 19 20 18 12 -1 20
-8 20 -19z m-37 -92 c7 -16 -1 -26 -20 -26 -7 0 -13 9 -13 20 0 23 25 27 33 6z
m47 -108 c0 -4 -10 -12 -21 -19 -20 -10 -21 -9 -16 10 3 11 1 21 -5 21 -5 0
-6 4 -3 10 6 10 45 -9 45 -22z m11 -81 c-8 -8 -11 -7 -11 4 0 20 13 34 18 19
3 -7 -1 -17 -7 -23z m-21 -111 c0 -3 -4 -8 -10 -11 -5 -3 -10 -1 -10 4 0 6 5
11 10 11 6 0 10 -2 10 -4z m126 -343 c-8 -9 -66 -11 -61 -3 2 4 18 7 36 8 17
0 28 -2 25 -5z"/>
<path d="M3884 3077 l-29 -25 0 -442 c0 -339 3 -444 12 -452 7 -6 11 -14 8
-18 -3 -5 -1 -11 5 -15 6 -4 5 -12 -5 -21 -8 -9 -12 -20 -9 -26 5 -7 2 -8 -5
-3 -9 5 -12 1 -11 -11 4 -33 0 -41 -23 -51 -29 -13 -32 -50 -5 -64 15 -8 18
-17 13 -36 -4 -19 0 -32 16 -49 18 -19 20 -26 9 -39 -10 -12 -10 -18 0 -30 11
-13 10 -14 -5 -9 -15 6 -16 4 -6 -14 7 -12 16 -22 21 -22 6 0 10 -4 10 -9 0
-12 -60 -34 -84 -32 -24 3 -16 -23 10 -28 22 -4 44 -20 44 -32 0 -5 -9 -18
-20 -29 -17 -17 -18 -24 -9 -41 25 -47 21 -129 -6 -129 -28 0 -28 -41 0 -70
26 -28 27 -50 1 -50 -7 0 -13 -12 -13 -28 0 -15 -3 -40 -7 -56 -4 -16 -3 -25
3 -22 5 4 5 -8 -1 -28 -8 -26 -7 -39 5 -62 9 -16 26 -48 37 -70 27 -56 44 -61
79 -22 23 26 31 30 43 20 8 -6 18 -9 22 -5 4 4 11 1 17 -7 8 -13 10 -13 19 0
8 13 13 13 31 1 19 -11 23 -11 31 3 6 11 17 14 38 9 31 -6 35 1 31 50 -2 12 5
17 22 17 13 0 34 11 47 25 l23 24 -29 12 c-16 7 -35 11 -41 10 -18 -3 -16 17
2 36 17 17 12 51 -11 69 -11 9 -11 14 1 32 9 11 11 23 6 26 -19 12 -22 58 -5
77 14 16 15 23 4 49 -7 16 -18 30 -24 30 -12 0 -15 59 -3 77 4 6 3 14 -3 18
-5 3 -7 17 -4 30 3 12 1 26 -5 29 -7 4 -9 40 -6 98 3 61 1 94 -6 99 -8 4 -8
12 0 25 6 11 16 32 21 47 9 25 14 28 48 26 21 -2 42 0 47 3 6 3 48 3 95 0 l86
-4 18 -312 c23 -405 23 -397 31 -458 9 -62 19 -87 49 -110 24 -20 56 -24 56
-7 0 8 5 7 16 -2 13 -10 17 -10 25 2 5 8 9 21 9 30 0 10 7 16 18 15 9 0 17 6
18 14 0 8 4 23 9 33 7 17 4 345 -11 1097 l-6 315 -36 75 c-37 79 -188 326
-205 337 -7 4 -8 -122 -3 -370 l7 -377 -114 0 c-148 0 -173 5 -186 39 -5 14
-13 172 -16 356 -3 182 -8 344 -11 362 -9 50 -54 86 -117 91 -46 4 -57 1 -83
-21z m21 -457 c3 -5 2 -10 -4 -10 -5 0 -13 5 -16 10 -3 6 -2 10 4 10 5 0 13
-4 16 -10z m145 -115 c13 -16 6 -35 -15 -35 -18 0 -28 17 -21 35 7 19 20 19
36 0z m-115 -35 c0 -22 -29 -18 -33 3 -3 14 1 18 15 15 10 -2 18 -10 18 -18z
m41 -149 c-4 -6 -14 -7 -23 -4 -15 6 -14 7 3 13 22 9 29 6 20 -9z m168 -110
c3 -5 0 -13 -7 -19 -15 -13 -42 1 -33 17 9 13 33 15 40 2z m101 -52 c0 -7 -8
-15 -17 -17 -18 -3 -25 18 -11 32 10 10 28 1 28 -15z m-149 -55 c-5 -14 -9
-15 -19 -5 -9 9 -9 14 3 21 10 7 11 10 3 10 -7 0 -13 5 -13 12 0 8 6 6 16 -4
10 -10 14 -23 10 -34z m102 -36 c-4 -27 -23 -34 -32 -13 -8 21 1 35 20 35 10
0 14 -8 12 -22z m-148 -302 c0 -3 -4 -8 -10 -11 -5 -3 -10 -1 -10 4 0 6 5 11
10 11 6 0 10 -2 10 -4z m544 -581 c-3 -8 -12 -11 -20 -8 -15 5 -18 16 -8 26
11 10 33 -4 28 -18z"/>
<path d="M1915 3082 c-48 -10 -65 -46 -100 -212 -22 -104 -100 -594 -114 -715
-7 -55 -17 -120 -23 -144 -6 -24 -12 -67 -12 -95 -1 -49 -2 -51 -27 -48 -24 3
-27 0 -25 -30 2 -18 -2 -39 -8 -47 -13 -17 -12 -21 6 -33 10 -7 10 -11 1 -15
-7 -2 -13 -11 -13 -19 0 -8 -7 -14 -15 -14 -22 0 -18 -16 9 -33 18 -12 22 -22
18 -43 -4 -20 -2 -25 8 -19 22 13 -11 -38 -37 -58 -31 -25 -28 -63 5 -59 31 4
38 -22 13 -47 -11 -11 -18 -27 -15 -35 3 -9 -4 -29 -16 -46 -12 -16 -18 -30
-14 -30 3 0 1 -7 -6 -15 -14 -16 -6 -35 16 -35 8 0 14 -9 14 -20 0 -11 -4 -20
-8 -20 -5 0 -9 -21 -10 -48 0 -36 6 -56 27 -87 23 -35 32 -40 69 -43 25 -2 42
1 42 7 0 6 9 11 19 11 28 0 68 75 82 156 7 38 19 77 27 86 8 10 13 32 11 55
-3 43 10 115 20 109 3 -2 6 16 6 41 1 45 25 80 47 67 5 -3 19 1 31 9 12 8 52
17 90 21 62 7 67 6 67 -12 0 -11 11 -71 25 -133 13 -63 32 -150 41 -194 9 -44
23 -101 31 -127 15 -50 57 -103 73 -93 6 3 10 2 10 -3 0 -5 14 -9 30 -9 19 0
30 5 30 14 0 8 4 12 9 9 5 -3 20 11 35 32 33 48 34 97 5 242 -11 58 -26 143
-34 190 -8 47 -28 157 -45 245 -17 88 -42 225 -56 305 -25 145 -131 677 -160
799 -20 87 -47 146 -76 164 -27 17 -74 26 -103 19z m65 -709 c0 -5 7 -45 15
-90 8 -46 24 -147 35 -225 12 -79 24 -153 27 -166 5 -23 4 -23 -73 -20 -69 3
-79 5 -82 22 -3 11 4 26 14 33 16 12 16 13 1 13 -22 0 -22 12 3 185 25 180 41
255 51 255 5 0 9 -3 9 -7z m-207 -248 c1 -5 -5 -11 -14 -13 -9 -2 -16 4 -16
13 0 17 27 17 30 0z m87 -6 c0 -5 -7 -9 -15 -9 -15 0 -20 12 -9 23 8 8 24 -1
24 -14z m-20 -78 c0 -10 -28 -41 -36 -41 -2 0 -4 11 -4 25 0 18 5 25 20 25 11
0 20 -4 20 -9z m-105 -111 c0 -22 -29 -18 -33 3 -3 14 1 18 15 15 10 -2 18
-10 18 -18z m115 3 c0 -10 -5 -25 -10 -33 -8 -13 -11 -13 -26 2 -14 14 -15 20
-4 32 17 21 40 20 40 -1z m78 -159 c-4 -3 -12 5 -18 18 -12 22 -12 22 6 6 10
-10 15 -20 12 -24z m242 14 c0 -13 -23 -5 -28 10 -2 7 2 10 12 6 9 -3 16 -11
16 -16z m-215 -68 c3 -5 1 -10 -4 -10 -6 0 -11 5 -11 10 0 6 2 10 4 10 3 0 8
-4 11 -10z m-191 -441 c-3 -5 -10 -7 -15 -3 -5 3 -7 10 -3 15 3 5 10 7 15 3 5
-3 7 -10 3 -15z"/>
<path d="M2393 3081 c-143 -6 -153 -7 -177 -30 -22 -21 -25 -31 -22 -68 2 -25
17 -70 33 -101 26 -52 32 -57 74 -68 26 -6 84 -12 130 -13 46 -1 84 -3 85 -4
1 -1 4 -121 7 -267 30 -1288 32 -1335 61 -1386 26 -47 92 -86 106 -64 7 11 10
11 10 2 0 -23 40 11 62 52 19 38 20 56 19 350 0 171 -6 533 -12 805 -13 563
-20 514 79 525 73 8 114 33 146 89 38 64 27 144 -22 167 -30 15 -324 20 -579
11z"/>
<path d="M3288 3055 c-96 -35 -183 -128 -230 -244 l-23 -56 0 -665 0 -665 23
-65 c49 -133 117 -213 220 -255 52 -21 71 -24 120 -19 63 7 173 53 211 87 46
43 100 125 106 163 4 21 15 76 26 121 16 66 18 90 10 121 -13 47 -52 92 -80
92 -11 0 -22 4 -25 9 -10 16 -61 19 -93 6 -43 -18 -50 -38 -63 -169 -9 -98
-13 -113 -36 -137 -49 -51 -119 -46 -148 8 -24 48 -34 174 -36 478 -1 160 -3
380 -5 490 -1 110 1 242 5 294 6 86 8 96 34 117 19 17 39 24 71 24 76 0 114
-54 115 -165 0 -52 21 -81 63 -89 51 -10 92 3 133 40 l37 34 -6 83 c-13 171
-76 276 -211 346 -47 25 -69 31 -120 30 -33 0 -78 -7 -98 -14z"/>
<path d="M1591 3036 c-31 -17 -36 -48 -11 -71 22 -20 55 -13 71 17 9 17 7 25
-12 44 -21 20 -27 21 -48 10z"/>
<path d="M5474 2826 c-28 -28 -34 -42 -34 -76 0 -53 25 -95 68 -116 52 -24 94
-12 132 39 27 36 31 48 27 87 -7 62 -49 100 -113 100 -39 0 -51 -5 -80 -34z
m114 -48 c7 -7 12 -25 12 -40 0 -34 -41 -59 -68 -41 -20 12 -23 74 -5 80 9 3
11 -4 7 -25 -5 -22 -2 -31 12 -36 27 -10 40 9 26 39 -7 14 -12 28 -12 30 0 9
16 5 28 -7z"/>
<path d="M5300 2712 c-79 -53 -233 -172 -281 -217 -72 -66 -83 -88 -103 -205
-15 -92 -23 -154 -65 -540 -11 -102 -25 -223 -31 -270 -26 -226 -25 -344 5
-384 8 -10 33 -22 56 -26 35 -7 47 -4 70 12 41 30 58 80 74 218 17 152 34 269
40 291 6 18 69 29 177 29 55 0 68 -3 72 -17 3 -10 24 -108 46 -219 44 -223 55
-257 97 -295 32 -30 98 -37 107 -12 3 8 10 12 15 9 12 -8 42 40 48 74 3 24
-19 175 -66 440 -5 30 -17 102 -26 160 -39 251 -171 923 -186 953 -12 21 -17
21 -49 -1z m-91 -472 c11 -52 30 -149 40 -215 11 -66 23 -130 26 -142 7 -23 6
-23 -85 -23 l-93 0 6 76 c10 107 45 351 58 399 14 49 18 41 48 -95z"/>
<path d="M226 2534 c-9 -8 -16 -28 -16 -44 0 -22 6 -29 26 -34 50 -13 93 44
62 81 -14 18 -53 16 -72 -3z"/>
<path d="M2337 2434 c-13 -13 -7 -52 8 -58 27 -10 46 5 43 33 -3 26 -35 41
-51 25z"/>
<path d="M206 2371 c-4 -5 -2 -12 3 -15 5 -4 12 -2 15 3 4 5 2 12 -3 15 -5 4
-12 2 -15 -3z"/>
<path d="M260 2291 c0 -5 -8 -7 -17 -5 -27 7 -29 -57 -3 -81 17 -15 24 -16 50
-5 26 11 30 18 30 50 0 25 -5 40 -16 44 -23 9 -44 7 -44 -3z"/>
<path d="M3770 2253 c8 -3 19 -11 23 -17 6 -7 7 -6 4 4 -2 8 -12 16 -23 17
-13 2 -15 1 -4 -4z"/>
<path d="M390 2210 c0 -5 5 -10 10 -10 6 0 10 5 10 10 0 6 -4 10 -10 10 -5 0
-10 -4 -10 -10z"/>
<path d="M385 2140 c-8 -13 3 -30 20 -30 7 0 16 -6 18 -12 3 -7 6 -1 6 13 1
16 -6 29 -15 33 -21 8 -22 8 -29 -4z"/>
<path d="M260 2105 c0 -8 5 -15 10 -15 6 0 10 7 10 15 0 8 -4 15 -10 15 -5 0
-10 -7 -10 -15z"/>
<path d="M3680 2090 c-9 -6 -10 -10 -3 -10 6 0 15 5 18 10 8 12 4 12 -15 0z"/>
<path d="M115 2080 c3 -5 8 -10 11 -10 2 0 4 5 4 10 0 6 -5 10 -11 10 -5 0 -7
-4 -4 -10z"/>
<path d="M335 2080 c3 -5 8 -10 11 -10 2 0 4 5 4 10 0 6 -5 10 -11 10 -5 0 -7
-4 -4 -10z"/>
<path d="M373 2030 c1 -13 8 -20 21 -20 18 0 19 1 1 20 -10 11 -19 20 -21 20
-1 0 -2 -9 -1 -20z"/>
<path d="M1610 2035 c0 -8 7 -15 15 -15 9 0 12 6 9 15 -4 8 -10 15 -15 15 -5
0 -9 -7 -9 -15z"/>
<path d="M3745 2040 c-4 -7 -3 -16 3 -22 14 -14 45 -2 40 15 -6 16 -34 21 -43
7z"/>
<path d="M1520 1980 c0 -19 11 -26 23 -14 8 8 -3 34 -14 34 -5 0 -9 -9 -9 -20z"/>
<path d="M270 1928 c-26 -10 -50 -48 -50 -78 0 -9 8 -25 18 -36 10 -10 21 -27
25 -38 6 -15 14 -18 48 -13 22 3 49 13 59 22 41 37 25 126 -26 145 -30 12 -40
11 -74 -2z"/>
<path d="M1567 1913 c-13 -12 -7 -23 13 -23 11 0 20 7 20 15 0 15 -21 21 -33
8z"/>
<path d="M4180 1911 c0 -5 5 -13 10 -16 6 -3 10 -2 10 4 0 5 -4 13 -10 16 -5
3 -10 2 -10 -4z"/>
<path d="M4295 1899 c-10 -15 1 -23 20 -15 9 3 13 10 10 16 -8 13 -22 13 -30
-1z"/>
<path d="M3780 1881 c0 -5 5 -13 10 -16 6 -3 10 -2 10 4 0 5 -4 13 -10 16 -5
3 -10 2 -10 -4z"/>
<path d="M4161 1837 c-18 -18 -13 -27 14 -27 14 0 25 5 25 10 0 6 7 10 15 10
8 0 15 3 15 8 0 12 -56 12 -69 -1z"/>
<path d="M1550 1829 c0 -5 5 -7 10 -4 6 3 10 8 10 11 0 2 -4 4 -10 4 -5 0 -10
-5 -10 -11z"/>
<path d="M1570 1805 c-12 -15 -6 -35 11 -35 5 0 9 6 9 14 0 8 5 16 12 18 8 3
6 7 -4 11 -9 3 -22 0 -28 -8z"/>
<path d="M4312 1804 c4 -21 22 -23 26 -1 2 10 -3 17 -13 17 -10 0 -15 -6 -13
-16z"/>
<path d="M3797 1793 c-11 -10 -8 -33 4 -33 5 0 7 5 4 10 -3 6 -1 10 4 10 6 0
11 5 11 10 0 11 -13 13 -23 3z"/>
<path d="M4220 1745 c0 -10 7 -15 18 -13 21 4 19 22 -2 26 -10 2 -16 -3 -16
-13z"/>
<path d="M206 1723 c-11 -11 -6 -23 9 -23 8 0 15 4 15 9 0 13 -16 22 -24 14z"/>
<path d="M4170 1711 c0 -12 5 -21 10 -21 6 0 10 6 10 14 0 8 -4 18 -10 21 -5
3 -10 -3 -10 -14z"/>
<path d="M4213 1640 c-16 -24 -1 -35 26 -20 12 6 18 16 15 25 -8 21 -27 19
-41 -5z"/>
<path d="M335 1631 c-3 -5 -1 -12 5 -16 12 -7 30 2 30 16 0 12 -27 12 -35 0z"/>
<path d="M824 1619 c-3 -6 -1 -16 5 -22 9 -9 14 -8 21 3 9 15 4 30 -10 30 -5
0 -12 -5 -16 -11z"/>
<path d="M1540 1609 c0 -14 5 -19 17 -17 26 5 29 38 4 38 -15 0 -21 -6 -21
-21z"/>
<path d="M110 1600 c0 -5 5 -10 11 -10 5 0 7 5 4 10 -3 6 -8 10 -11 10 -2 0
-4 -4 -4 -10z"/>
<path d="M4156 1603 c-11 -11 -6 -23 9 -23 8 0 15 4 15 9 0 13 -16 22 -24 14z"/>
<path d="M4310 1579 c0 -11 5 -17 10 -14 6 3 10 13 10 21 0 8 -4 14 -10 14 -5
0 -10 -9 -10 -21z"/>
<path d="M392 1578 c3 -7 13 -15 22 -16 12 -3 17 1 14 10 -3 7 -13 15 -22 16
-12 3 -17 -1 -14 -10z"/>
<path d="M275 1570 c-8 -13 15 -24 27 -12 6 6 4 11 -6 15 -8 3 -18 2 -21 -3z"/>
<path d="M1940 1539 c0 -11 5 -17 10 -14 6 3 10 13 10 21 0 8 -4 14 -10 14 -5
0 -10 -9 -10 -21z"/>
<path d="M4230 1500 c-12 -7 -12 -12 -2 -22 14 -14 35 1 24 19 -5 8 -13 9 -22
3z"/>
<path d="M326 1485 c-3 -9 0 -15 9 -15 16 0 20 16 6 24 -5 3 -11 -1 -15 -9z"/>
<path d="M810 1470 c0 -5 6 -10 14 -10 8 0 18 5 21 10 3 6 -3 10 -14 10 -12 0
-21 -4 -21 -10z"/>
<path d="M4297 1456 c-3 -8 -2 -18 3 -21 13 -8 24 15 12 27 -6 6 -11 4 -15 -6z"/>
<path d="M910 1440 c0 -5 5 -10 11 -10 5 0 7 5 4 10 -3 6 -8 10 -11 10 -2 0
-4 -4 -4 -10z"/>
<path d="M1877 1413 c-9 -9 -8 -25 2 -42 8 -12 12 -12 25 -2 22 19 21 51 -2
51 -10 0 -22 -3 -25 -7z"/>
<path d="M3755 1370 c3 -5 10 -10 16 -10 5 0 9 5 9 10 0 6 -7 10 -16 10 -8 0
-12 -4 -9 -10z"/>
<path d="M4195 1369 c-8 -11 29 -52 38 -42 7 7 -14 53 -24 53 -4 0 -11 -5 -14
-11z"/>
<path d="M4260 1362 c0 -10 22 -32 32 -32 4 0 8 9 8 20 0 13 -7 20 -20 20 -11
0 -20 -4 -20 -8z"/>
<path d="M210 1330 c0 -5 5 -10 10 -10 6 0 10 5 10 10 0 6 -4 10 -10 10 -5 0
-10 -4 -10 -10z"/>
<path d="M322 1323 c4 -16 1 -20 -18 -20 -13 0 -24 3 -24 8 0 5 -4 9 -10 9
-19 0 -11 -47 9 -53 36 -9 79 51 49 69 -7 5 -9 1 -6 -13z"/>
<path d="M1055 1330 c-11 -17 5 -32 21 -19 7 6 11 15 8 20 -7 12 -21 11 -29
-1z"/>
<path d="M930 1301 c-12 -24 1 -35 31 -26 17 6 19 9 8 16 -10 6 -11 9 -1 9 6
0 12 5 12 10 0 18 -39 11 -50 -9z"/>
<path d="M3747 1299 c-9 -6 -15 -14 -12 -20 9 -13 45 -11 45 2 0 6 -7 8 -16 5
-14 -5 -15 -4 -4 9 14 17 12 18 -13 4z"/>
<path d="M4276 1282 c-15 -18 -15 -20 2 -35 38 -35 74 -9 46 32 -18 26 -26 26
-48 3z"/>
<path d="M385 1270 c3 -5 8 -10 11 -10 2 0 4 5 4 10 0 6 -5 10 -11 10 -5 0 -7
-4 -4 -10z"/>
<path d="M886 1245 c-3 -8 -1 -15 4 -15 6 0 10 7 10 15 0 8 -2 15 -4 15 -2 0
-6 -7 -10 -15z"/>
<path d="M955 1230 c-3 -5 -1 -10 4 -10 6 0 11 5 11 10 0 6 -2 10 -4 10 -3 0
-8 -4 -11 -10z"/>
<path d="M1835 1230 c-3 -5 -1 -10 4 -10 6 0 11 5 11 10 0 6 -2 10 -4 10 -3 0
-8 -4 -11 -10z"/>
<path d="M336 1215 c4 -8 10 -12 15 -9 14 8 10 24 -6 24 -9 0 -12 -6 -9 -15z"/>
<path d="M1150 1220 c0 -5 5 -10 10 -10 6 0 10 5 10 10 0 6 -4 10 -10 10 -5 0
-10 -4 -10 -10z"/>
<path d="M190 1210 c0 -5 5 -10 10 -10 6 0 10 5 10 10 0 6 -4 10 -10 10 -5 0
-10 -4 -10 -10z"/>
<path d="M4351 1186 c-12 -14 -5 -26 16 -26 15 0 18 26 4 34 -5 3 -14 0 -20
-8z"/>
<path d="M264 1169 c-9 -16 12 -33 31 -25 14 5 15 9 5 21 -15 18 -26 19 -36 4z"/>
<path d="M905 1170 c-3 -5 -1 -10 6 -10 8 0 8 -4 -1 -15 -10 -12 -10 -15 4
-15 9 0 16 8 16 19 0 23 -16 36 -25 21z"/>
<path d="M3750 1166 c0 -9 -7 -16 -15 -16 -8 0 -15 5 -15 12 0 15 -13 1 -16
-17 -3 -23 43 -19 56 4 7 13 7 22 0 26 -5 3 -10 -1 -10 -9z"/>
<path d="M346 1151 c-19 -20 -12 -51 11 -51 10 0 14 7 10 20 -3 13 0 20 9 20
8 0 11 6 8 15 -8 20 -17 19 -38 -4z"/>
<path d="M1004 1156 c-8 -21 13 -46 38 -46 30 0 21 54 -10 58 -13 2 -25 -3
-28 -12z"/>
<path d="M1116 1125 c-3 -9 0 -15 9 -15 8 0 15 7 15 15 0 8 -4 15 -9 15 -5 0
-11 -7 -15 -15z"/>
<path d="M3635 1130 c-4 -7 -3 -16 3 -22 14 -14 45 -2 40 15 -6 16 -34 21 -43
7z"/>
<path d="M4253 1133 c-21 -8 -15 -30 14 -53 21 -16 29 -18 32 -8 2 7 9 16 15
20 6 4 0 8 -14 8 -18 0 -21 3 -11 9 11 7 10 11 -5 19 -11 5 -25 7 -31 5z"/>
<path d="M1952 1114 c-27 -19 -28 -28 -2 -54 16 -16 24 -18 44 -9 28 13 38 39
24 63 -11 20 -37 21 -66 0z"/>
<path d="M2893 1102 c-18 -12 -19 -44 -1 -56 25 -15 58 17 42 41 -13 20 -25
25 -41 15z"/>
<path d="M270 1064 c0 -8 5 -12 10 -9 6 3 10 10 10 16 0 5 -4 9 -10 9 -5 0
-10 -7 -10 -16z"/>
<path d="M986 1073 c-12 -12 -6 -43 9 -43 8 0 15 9 15 19 0 21 -13 34 -24 24z"/>
<path d="M3557 1073 c-15 -15 -6 -43 13 -43 11 0 20 6 20 14 0 17 -24 38 -33
29z"/>
<path d="M3722 1071 c2 -7 7 -12 11 -12 12 1 9 15 -3 20 -7 2 -11 -2 -8 -8z"/>
<path d="M182 1058 c6 -18 28 -21 28 -4 0 9 -7 16 -16 16 -9 0 -14 -5 -12 -12z"/>
<path d="M4214 1055 c-7 -18 3 -35 22 -35 8 0 14 10 14 25 0 27 -27 35 -36 10z"/>
<path d="M347 1044 c-8 -8 1 -24 14 -24 5 0 9 7 9 15 0 15 -12 20 -23 9z"/>
<path d="M3926 995 c-3 -8 -1 -15 4 -15 13 0 22 18 11 24 -5 3 -11 -1 -15 -9z"/>
<path d="M4112 999 c2 -6 8 -10 13 -10 5 0 11 4 13 10 2 6 -4 11 -13 11 -9 0
-15 -5 -13 -11z"/>
<path d="M1006 992 c-3 -6 -1 -14 5 -17 15 -10 25 3 12 16 -7 7 -13 7 -17 1z"/>
<path d="M3865 990 c3 -5 8 -10 11 -10 2 0 4 5 4 10 0 6 -5 10 -11 10 -5 0 -7
-4 -4 -10z"/>
<path d="M4348 994 c-12 -11 4 -34 24 -34 13 0 18 6 16 17 -3 18 -29 29 -40
17z"/>
<path d="M3492 978 c6 -18 28 -21 28 -4 0 9 -7 16 -16 16 -9 0 -14 -5 -12 -12z"/>
<path d="M3375 970 c-8 -13 14 -42 26 -34 5 3 9 14 9 25 0 20 -24 26 -35 9z"/>
<path d="M4035 970 c-3 -6 1 -13 10 -16 19 -8 30 0 20 15 -8 14 -22 14 -30 1z"/>
<path d="M1280 956 c0 -8 5 -18 10 -21 6 -3 10 3 10 14 0 12 -4 21 -10 21 -5
0 -10 -6 -10 -14z"/>
<path d="M560 945 c0 -17 2 -18 24 -9 18 7 12 24 -10 24 -8 0 -14 -7 -14 -15z"/>
<path d="M3675 943 c-38 -21 -52 -39 -59 -82 -6 -42 15 -74 67 -102 60 -32
113 -15 144 44 32 63 -18 152 -87 155 -19 1 -48 -6 -65 -15z"/>
<path d="M4156 953 c-11 -11 -6 -23 9 -23 8 0 15 4 15 9 0 13 -16 22 -24 14z"/>
<path d="M376 943 c-11 -11 -6 -23 9 -23 8 0 15 4 15 9 0 13 -16 22 -24 14z"/>
<path d="M587 923 c-15 -15 -7 -43 13 -43 21 0 24 8 14 34 -7 17 -16 20 -27 9z"/>
<path d="M3931 902 c-18 -33 -11 -41 18 -23 10 6 11 14 3 26 -9 17 -10 17 -21
-3z"/>
<path d="M1057 894 c-8 -8 1 -24 14 -24 5 0 9 7 9 15 0 15 -12 20 -23 9z"/>
<path d="M4045 890 c-3 -5 1 -10 9 -10 9 0 16 5 16 10 0 6 -4 10 -9 10 -6 0
-13 -4 -16 -10z"/>
<path d="M3152 878 c-7 -7 -12 -22 -12 -35 0 -18 6 -23 25 -23 29 0 43 25 28
48 -13 21 -26 25 -41 10z"/>
<path d="M341 846 c-14 -17 -7 -36 14 -36 22 0 29 20 13 36 -13 13 -16 13 -27
0z"/>
<path d="M445 850 c3 -5 -3 -10 -14 -10 -21 0 -28 -14 -12 -24 16 -10 41 5 41
25 0 10 -5 19 -11 19 -5 0 -7 -4 -4 -10z"/>
<path d="M487 845 c-5 -10 0 -15 14 -15 12 0 19 5 17 12 -6 18 -25 20 -31 3z"/>
<path d="M1070 819 c0 -11 5 -17 10 -14 6 3 10 13 10 21 0 8 -4 14 -10 14 -5
0 -10 -9 -10 -21z"/>
<path d="M3470 829 c0 -5 5 -7 10 -4 6 3 10 8 10 11 0 2 -4 4 -10 4 -5 0 -10
-5 -10 -11z"/>
<path d="M4116 824 c-7 -19 1 -34 19 -34 21 0 28 19 15 35 -16 19 -26 19 -34
-1z"/>
<path d="M1378 809 c-33 -19 -15 -69 24 -69 26 0 45 44 28 65 -14 17 -28 19
-52 4z"/>
<path d="M4374 805 c-4 -9 -2 -21 4 -27 15 -15 44 -1 40 19 -4 23 -36 29 -44
8z"/>
<path d="M267 803 c-12 -11 -8 -23 8 -23 8 0 15 7 15 15 0 16 -12 20 -23 8z"/>
<path d="M615 800 c-7 -12 41 -44 55 -35 15 9 12 25 -5 25 -8 0 -15 5 -15 10
0 13 -27 13 -35 0z"/>
<path d="M945 757 c-19 -30 -11 -55 21 -63 34 -9 56 13 52 50 -2 25 -8 32 -30
34 -19 2 -31 -3 -43 -21z"/>
<path d="M3354 747 c-23 -20 -25 -26 -15 -46 17 -31 51 -42 78 -23 26 16 29
48 9 75 -18 23 -40 21 -72 -6z"/>
<path d="M4133 734 c-8 -21 13 -42 28 -27 13 13 5 43 -11 43 -6 0 -13 -7 -17
-16z"/>
<path d="M2890 715 c-12 -22 -11 -27 5 -45 24 -26 41 -25 71 5 20 20 23 28 14
45 -16 30 -73 27 -90 -5z"/>
<path d="M494 705 c-9 -23 3 -45 25 -45 10 0 21 -7 25 -15 7 -19 25 -19 32 0
7 16 -43 75 -64 75 -7 0 -15 -7 -18 -15z"/>
<path d="M355 700 c-3 -5 -1 -10 4 -10 6 0 11 5 11 10 0 6 -2 10 -4 10 -3 0
-8 -4 -11 -10z"/>
<path d="M780 670 c0 -15 5 -20 18 -18 9 2 17 10 17 18 0 8 -8 16 -17 18 -13
2 -18 -3 -18 -18z"/>
<path d="M1135 679 c-5 -5 -19 -16 -30 -24 -16 -11 -20 -24 -19 -70 0 -48 4
-60 24 -75 79 -59 170 -12 170 89 0 34 -5 44 -33 65 -35 27 -93 34 -112 15z"/>
<path d="M305 650 c-3 -5 -1 -10 4 -10 6 0 11 5 11 10 0 6 -2 10 -4 10 -3 0
-8 -4 -11 -10z"/>
<path d="M3754 646 c-7 -19 12 -46 33 -46 21 0 13 54 -10 58 -9 2 -20 -4 -23
-12z"/>
<path d="M659 573 c-5 -15 -8 -37 -4 -50 12 -49 105 -36 105 14 0 43 -18 63
-56 63 -28 0 -36 -5 -45 -27z"/>
<path d="M3912 573 c5 -26 38 -29 38 -4 0 15 -6 21 -21 21 -14 0 -19 -5 -17
-17z"/>
<path d="M854 569 c-3 -6 -2 -15 2 -19 12 -12 38 5 30 19 -9 14 -23 14 -32 0z"/>
<path d="M3255 570 c-3 -5 1 -10 9 -10 9 0 16 5 16 10 0 6 -4 10 -9 10 -6 0
-13 -4 -16 -10z"/>
<path d="M3100 530 c-8 -5 -16 -22 -17 -38 -9 -73 89 -85 111 -14 15 45 -49
80 -94 52z"/>
<path d="M3571 466 c-8 -10 -8 -16 2 -25 16 -13 27 -5 27 21 0 21 -13 23 -29
4z"/>
<path d="M827 297 c-3 -8 -2 -20 3 -27 11 -18 42 -4 38 17 -4 22 -34 29 -41
10z"/>
</g>
</svg>
