<?xml version="1.0" encoding="UTF-8"?>
<!DOCTYPE svg PUBLIC "-//W3C//DTD SVG 1.1//EN" "http://www.w3.org/Graphics/SVG/1.1/DTD/svg11.dtd">
<svg xmlns="http://www.w3.org/2000/svg" version="1.1" width="500px" height="500px" style="shape-rendering:geometricPrecision; text-rendering:geometricPrecision; image-rendering:optimizeQuality; fill-rule:evenodd; clip-rule:evenodd" xmlns:xlink="http://www.w3.org/1999/xlink">
<g><path style="opacity:0.371" fill="#a2a2a2" d="M 364.5,139.5 C 286.478,139.178 208.478,139.512 130.5,140.5C 131.263,139.732 132.263,139.232 133.5,139C 210.668,138.168 287.668,138.334 364.5,139.5 Z"/></g>
<g><path style="opacity:1" fill="#060606" d="M 364.5,139.5 C 367.079,139.394 369.412,140.061 371.5,141.5C 373.452,144.118 375.785,146.452 378.5,148.5C 378.427,150.027 379.094,151.027 380.5,151.5C 381.275,156.797 381.608,162.13 381.5,167.5C 381.539,170.089 380.539,172.089 378.5,173.5C 377.094,173.973 376.427,174.973 376.5,176.5C 373.288,179.942 369.288,182.109 364.5,183C 287.833,183.667 211.167,183.667 134.5,183C 132.148,182.76 130.148,181.927 128.5,180.5C 128.027,179.094 127.027,178.427 125.5,178.5C 123.785,176.118 121.785,174.118 119.5,172.5C 118.069,171.22 117.402,169.553 117.5,167.5C 117.392,162.13 117.725,156.797 118.5,151.5C 120.262,150.738 121.262,149.404 121.5,147.5C 123.637,144.027 126.637,141.694 130.5,140.5C 208.478,139.512 286.478,139.178 364.5,139.5 Z"/></g>
<g><path style="opacity:0.89" fill="#9b9b9b" d="M 371.5,141.5 C 374.855,142.855 377.189,145.189 378.5,148.5C 375.785,146.452 373.452,144.118 371.5,141.5 Z"/></g>
<g><path style="opacity:0.718" fill="#777777" d="M 121.5,147.5 C 121.262,149.404 120.262,150.738 118.5,151.5C 118.738,149.596 119.738,148.262 121.5,147.5 Z"/></g>
<g><path style="opacity:0.341" fill="#a6a6a6" d="M 378.5,148.5 C 379.906,148.973 380.573,149.973 380.5,151.5C 379.094,151.027 378.427,150.027 378.5,148.5 Z"/></g>
<g><path style="opacity:0.681" fill="#808080" d="M 380.5,151.5 C 382.006,154.356 382.672,157.523 382.5,161C 382.496,163.361 382.163,165.527 381.5,167.5C 381.608,162.13 381.275,156.797 380.5,151.5 Z"/></g>
<g><path style="opacity:0.694" fill="#848484" d="M 118.5,151.5 C 117.725,156.797 117.392,162.13 117.5,167.5C 116.837,165.527 116.504,163.361 116.5,161C 116.328,157.523 116.994,154.356 118.5,151.5 Z"/></g>
<g><path style="opacity:0.608" fill="#929292" d="M 119.5,172.5 C 121.785,174.118 123.785,176.118 125.5,178.5C 122.522,177.522 120.522,175.522 119.5,172.5 Z"/></g>
<g><path style="opacity:0.008" fill="#c5c5c5" d="M 378.5,173.5 C 378.573,175.027 377.906,176.027 376.5,176.5C 376.427,174.973 377.094,173.973 378.5,173.5 Z"/></g>
<g><path style="opacity:0.592" fill="#777777" d="M 125.5,178.5 C 127.027,178.427 128.027,179.094 128.5,180.5C 126.973,180.573 125.973,179.906 125.5,178.5 Z"/></g>
<g><path style="opacity:0.838" fill="#898989" d="M 367.5,228.5 C 288.144,228.178 208.811,228.511 129.5,229.5C 132.356,227.923 135.522,226.923 139,226.5C 208.685,227.059 278.851,227.059 349.5,226.5C 355.685,226.845 361.685,227.511 367.5,228.5 Z"/></g>
<g><path style="opacity:1" fill="#010101" d="M 367.5,228.5 C 371.892,229.359 375.225,231.693 377.5,235.5C 377.427,237.027 378.094,238.027 379.5,238.5C 380.338,238.842 380.672,239.508 380.5,240.5C 381.774,246.508 381.774,252.508 380.5,258.5C 378.1,264.566 373.767,268.566 367.5,270.5C 288.833,270.5 210.167,270.5 131.5,270.5C 129.847,270.34 128.514,269.674 127.5,268.5C 127.027,267.094 126.027,266.427 124.5,266.5C 121.353,264.687 119.353,262.02 118.5,258.5C 117.658,253.213 117.324,247.88 117.5,242.5C 117.66,240.847 118.326,239.514 119.5,238.5C 121.262,237.738 122.262,236.404 122.5,234.5C 124.749,233.92 126.415,232.587 127.5,230.5C 127.842,229.662 128.508,229.328 129.5,229.5C 208.811,228.511 288.144,228.178 367.5,228.5 Z"/></g>
<g><path style="opacity:0.953" fill="#575757" d="M 127.5,230.5 C 126.415,232.587 124.749,233.92 122.5,234.5C 123.585,232.413 125.251,231.08 127.5,230.5 Z"/></g>
<g><path style="opacity:0.882" fill="#767676" d="M 122.5,234.5 C 122.262,236.404 121.262,237.738 119.5,238.5C 119.738,236.596 120.738,235.262 122.5,234.5 Z"/></g>
<g><path style="opacity:0.467" fill="#959595" d="M 377.5,235.5 C 378.906,235.973 379.573,236.973 379.5,238.5C 378.094,238.027 377.427,237.027 377.5,235.5 Z"/></g>
<g><path style="opacity:0.557" fill="#8c8c8c" d="M 380.5,240.5 C 381.222,240.918 381.722,241.584 382,242.5C 382.667,247.167 382.667,251.833 382,256.5C 381.722,257.416 381.222,258.082 380.5,258.5C 381.774,252.508 381.774,246.508 380.5,240.5 Z"/></g>
<g><path style="opacity:0.68" fill="#8f8f8f" d="M 117.5,242.5 C 117.324,247.88 117.658,253.213 118.5,258.5C 117.778,258.082 117.278,257.416 117,256.5C 116.185,251.648 116.352,246.981 117.5,242.5 Z"/></g>
<g><path style="opacity:0.49" fill="#919191" d="M 124.5,266.5 C 126.027,266.427 127.027,267.094 127.5,268.5C 125.973,268.573 124.973,267.906 124.5,266.5 Z"/></g>
<g><path style="opacity:0.809" fill="#575757" d="M 131.5,270.5 C 210.167,270.5 288.833,270.5 367.5,270.5C 363.101,271.191 358.601,271.858 354,272.5C 284.579,271.208 215.079,271.208 145.5,272.5C 140.701,271.883 136.034,271.216 131.5,270.5 Z"/></g>
<g><path style="opacity:1" fill="#0a0a0a" d="M 374.5,320.5 C 375.08,322.749 376.413,324.415 378.5,325.5C 378.427,327.027 379.094,328.027 380.5,328.5C 381.275,333.797 381.608,339.13 381.5,344.5C 381.539,347.089 380.539,349.089 378.5,350.5C 377.094,350.973 376.427,351.973 376.5,353.5C 373.288,356.942 369.288,359.109 364.5,360C 287.833,360.667 211.167,360.667 134.5,360C 131.401,359.613 128.734,358.446 126.5,356.5C 124.452,353.785 122.118,351.452 119.5,349.5C 118.069,348.22 117.402,346.553 117.5,344.5C 117.392,339.13 117.725,333.797 118.5,328.5C 119.906,328.027 120.573,327.027 120.5,325.5C 122.5,324.167 124.167,322.5 125.5,320.5C 127.89,317.972 130.89,316.472 134.5,316C 211.5,315.333 288.5,315.333 365.5,316C 368.806,316.986 371.806,318.486 374.5,320.5 Z"/></g>
<g><path style="opacity:0.682" fill="#a3a3a3" d="M 374.5,320.5 C 376.587,321.585 377.92,323.251 378.5,325.5C 376.413,324.415 375.08,322.749 374.5,320.5 Z"/></g>
<g><path style="opacity:0.694" fill="#959595" d="M 125.5,320.5 C 124.167,322.5 122.5,324.167 120.5,325.5C 121.167,322.833 122.833,321.167 125.5,320.5 Z"/></g>
<g><path style="opacity:0.365" fill="#a1a1a1" d="M 120.5,325.5 C 120.573,327.027 119.906,328.027 118.5,328.5C 118.427,326.973 119.094,325.973 120.5,325.5 Z"/></g>
<g><path style="opacity:0.349" fill="#a1a1a1" d="M 378.5,325.5 C 379.906,325.973 380.573,326.973 380.5,328.5C 379.094,328.027 378.427,327.027 378.5,325.5 Z"/></g>
<g><path style="opacity:0.682" fill="#808080" d="M 380.5,328.5 C 382.006,331.356 382.672,334.523 382.5,338C 382.496,340.361 382.163,342.527 381.5,344.5C 381.608,339.13 381.275,333.797 380.5,328.5 Z"/></g>
<g><path style="opacity:0.686" fill="#848484" d="M 118.5,328.5 C 117.725,333.797 117.392,339.13 117.5,344.5C 116.837,342.527 116.504,340.361 116.5,338C 116.328,334.523 116.994,331.356 118.5,328.5 Z"/></g>
<g><path style="opacity:0.584" fill="#9f9f9f" d="M 119.5,349.5 C 122.118,351.452 124.452,353.785 126.5,356.5C 123.189,355.189 120.855,352.855 119.5,349.5 Z"/></g>
<g><path style="opacity:0.027" fill="#c5c5c5" d="M 378.5,350.5 C 378.573,352.027 377.906,353.027 376.5,353.5C 376.427,351.973 377.094,350.973 378.5,350.5 Z"/></g>
</svg>
